<?xml version="1.0" standalone="no"?>
<!DOCTYPE svg PUBLIC "-//W3C//DTD SVG 20010904//EN"
        "http://www.w3.org/TR/2001/REC-SVG-20010904/DTD/svg10.dtd">
<svg version="1.0"
    xmlns="http://www.w3.org/2000/svg" width="512.000000pt" height="512.000000pt" viewBox="0 0 512.000000 512.000000" preserveAspectRatio="xMidYMid meet">
    <metadata>
        Created by potrace 1.14, written by Peter Selinger 2001-2017
    </metadata>
    <g transform="translate(0.000000,512.000000) scale(0.100000,-0.100000)" fill="#000000" stroke="none">
        <path d="M292 5103 c-72 -35 -92 -93 -73 -216 45 -291 256 -643 611 -1020 l35
-37 -56 -114 c-86 -175 -140 -351 -184 -606 -11 -62 -14 -393 -4 -460 16 -114
16 -112 45 -258 15 -73 92 -282 143 -386 56 -114 152 -272 199 -327 11 -13 41
-49 66 -79 l45 -55 -139 -139 -139 -140 -75 72 c-77 73 -86 77 -164 74 -63 -3
-126 -80 -124 -149 2 -48 24 -84 91 -150 l59 -58 -293 -295 c-265 -268 -294
-300 -313 -351 -55 -149 7 -305 151 -381 34 -19 58 -23 127 -23 129 0 139 8
465 334 154 155 283 281 287 281 5 0 32 -24 61 -54 28 -29 64 -61 79 -71 36
-22 110 -22 151 2 38 22 79 96 73 133 -2 14 -5 33 -5 42 -1 10 -33 52 -73 94
l-72 75 163 163 162 163 102 -51 c56 -28 118 -57 137 -65 59 -22 244 -81 270
-86 14 -3 40 -9 58 -14 18 -5 35 -10 37 -10 13 1 122 -14 140 -18 53 -12 387
-10 485 3 211 28 410 90 608 187 l103 51 162 -162 162 -162 -67 -67 c-67 -69
-87 -109 -82 -165 7 -70 76 -128 152 -128 47 0 97 31 162 101 l45 48 290 -289
c311 -310 330 -324 438 -336 115 -13 240 55 294 159 24 45 28 64 28 137 0 70
-4 93 -24 130 -15 29 -125 148 -309 332 l-286 288 39 42 c22 24 45 46 52 50 6
5 21 24 33 43 42 69 18 175 -48 209 -83 42 -134 28 -224 -61 l-68 -68 -139
139 -139 139 62 76 c218 267 368 591 416 896 6 39 13 81 16 95 14 59 13 407
-1 500 -37 248 -89 419 -191 623 -24 48 -44 91 -44 95 1 4 21 30 46 57 53 58
144 161 167 190 92 113 131 166 192 260 86 131 121 194 162 295 43 104 71 212
79 297 5 64 3 77 -18 114 -37 67 -124 97 -190 65 -18 -9 -210 -194 -427 -410
l-394 -394 -76 62 c-195 161 -403 276 -641 353 -107 34 -223 61 -337 77 -107
15 -373 18 -468 5 -33 -4 -82 -11 -110 -14 -77 -10 -264 -61 -372 -101 -209
-77 -443 -217 -597 -357 l-31 -27 -400 399 c-220 220 -413 405 -428 410 -40
15 -87 13 -125 -6z"/>
    </g>
</svg>
